<mxfile host="app.diagrams.net" agent="Mozilla/5.0 (Windows NT 10.0; Win64; x64) AppleWebKit/537.36 (KHTML, like Gecko) Chrome/133.0.0.0 Safari/537.36" version="26.0.16">
  <diagram name="backpack" id="WbhOg6mAHFlbiaJ38bU9">
    <mxGraphModel dx="1185" dy="632" grid="1" gridSize="10" guides="1" tooltips="1" connect="1" arrows="1" fold="1" page="1" pageScale="1" pageWidth="850" pageHeight="1100" math="0" shadow="0">
      <root>
        <mxCell id="0" />
        <mxCell id="1" parent="0" />
        <mxCell id="1ED4RVVmAUTitH_Si6eS-34" value="" style="endArrow=none;dashed=1;html=1;strokeWidth=1;rounded=0;fillColor=#dae8fc;strokeColor=#6c8ebf;" edge="1" parent="1">
          <mxGeometry width="50" height="50" relative="1" as="geometry">
            <mxPoint x="200" y="600" as="sourcePoint" />
            <mxPoint x="360" y="600" as="targetPoint" />
          </mxGeometry>
        </mxCell>
        <mxCell id="1ED4RVVmAUTitH_Si6eS-35" value="" style="endArrow=none;dashed=1;html=1;strokeWidth=1;rounded=0;fillColor=#dae8fc;strokeColor=#6c8ebf;" edge="1" parent="1">
          <mxGeometry width="50" height="50" relative="1" as="geometry">
            <mxPoint x="200" y="550" as="sourcePoint" />
            <mxPoint x="360" y="550" as="targetPoint" />
          </mxGeometry>
        </mxCell>
        <mxCell id="1ED4RVVmAUTitH_Si6eS-33" value="" style="endArrow=none;dashed=1;html=1;strokeWidth=1;rounded=0;fillColor=#dae8fc;strokeColor=#6c8ebf;" edge="1" parent="1">
          <mxGeometry width="50" height="50" relative="1" as="geometry">
            <mxPoint x="200" y="640" as="sourcePoint" />
            <mxPoint x="360" y="640" as="targetPoint" />
          </mxGeometry>
        </mxCell>
        <mxCell id="b7AsIHiMoh33NBh8LySQ-63" value="&lt;font color=&quot;#006600&quot;&gt;would use&lt;/font&gt;" style="rounded=0;whiteSpace=wrap;html=1;fillColor=#d5e8d4;strokeColor=none;glass=0;shadow=0;sketch=1;curveFitting=1;jiggle=2;" parent="1" vertex="1">
          <mxGeometry x="140" y="180" width="200" height="40" as="geometry" />
        </mxCell>
        <mxCell id="b7AsIHiMoh33NBh8LySQ-1" value="" style="endArrow=none;html=1;rounded=0;" parent="1" edge="1">
          <mxGeometry width="50" height="50" relative="1" as="geometry">
            <mxPoint x="80" y="160" as="sourcePoint" />
            <mxPoint x="480" y="160" as="targetPoint" />
          </mxGeometry>
        </mxCell>
        <mxCell id="b7AsIHiMoh33NBh8LySQ-2" value="" style="endArrow=none;html=1;rounded=0;" parent="1" edge="1">
          <mxGeometry width="50" height="50" relative="1" as="geometry">
            <mxPoint x="120" y="400" as="sourcePoint" />
            <mxPoint x="120" y="120" as="targetPoint" />
          </mxGeometry>
        </mxCell>
        <mxCell id="b7AsIHiMoh33NBh8LySQ-3" value="&lt;font face=&quot;Lucida Console&quot;&gt;i\j&lt;/font&gt;" style="text;html=1;align=center;verticalAlign=middle;whiteSpace=wrap;rounded=0;" parent="1" vertex="1">
          <mxGeometry x="80" y="120" width="40" height="40" as="geometry" />
        </mxCell>
        <mxCell id="b7AsIHiMoh33NBh8LySQ-6" value="&lt;font face=&quot;Lucida Console&quot;&gt;1&lt;/font&gt;" style="text;html=1;align=center;verticalAlign=middle;whiteSpace=wrap;rounded=0;" parent="1" vertex="1">
          <mxGeometry x="80" y="160" width="20" height="40" as="geometry" />
        </mxCell>
        <mxCell id="b7AsIHiMoh33NBh8LySQ-7" value="&lt;font face=&quot;Lucida Console&quot;&gt;2&lt;/font&gt;" style="text;html=1;align=center;verticalAlign=middle;whiteSpace=wrap;rounded=0;" parent="1" vertex="1">
          <mxGeometry x="80" y="200" width="20" height="40" as="geometry" />
        </mxCell>
        <mxCell id="b7AsIHiMoh33NBh8LySQ-9" value="&lt;font face=&quot;Lucida Console&quot;&gt;3&lt;/font&gt;" style="text;html=1;align=center;verticalAlign=middle;whiteSpace=wrap;rounded=0;" parent="1" vertex="1">
          <mxGeometry x="80" y="240" width="20" height="40" as="geometry" />
        </mxCell>
        <mxCell id="b7AsIHiMoh33NBh8LySQ-10" value="&lt;font face=&quot;Lucida Console&quot;&gt;4&lt;/font&gt;" style="text;html=1;align=center;verticalAlign=middle;whiteSpace=wrap;rounded=0;" parent="1" vertex="1">
          <mxGeometry x="80" y="280" width="20" height="40" as="geometry" />
        </mxCell>
        <mxCell id="b7AsIHiMoh33NBh8LySQ-11" value="&lt;font face=&quot;Lucida Console&quot;&gt;..&lt;/font&gt;" style="text;html=1;align=center;verticalAlign=middle;whiteSpace=wrap;rounded=0;" parent="1" vertex="1">
          <mxGeometry x="80" y="320" width="20" height="40" as="geometry" />
        </mxCell>
        <mxCell id="b7AsIHiMoh33NBh8LySQ-12" value="&lt;font face=&quot;Lucida Console&quot;&gt;N&lt;/font&gt;" style="text;html=1;align=center;verticalAlign=middle;whiteSpace=wrap;rounded=0;" parent="1" vertex="1">
          <mxGeometry x="80" y="360" width="20" height="40" as="geometry" />
        </mxCell>
        <mxCell id="b7AsIHiMoh33NBh8LySQ-13" value="&lt;font face=&quot;Lucida Console&quot;&gt;1&lt;/font&gt;" style="text;html=1;align=center;verticalAlign=middle;whiteSpace=wrap;rounded=0;" parent="1" vertex="1">
          <mxGeometry x="120" y="120" width="40" height="40" as="geometry" />
        </mxCell>
        <mxCell id="b7AsIHiMoh33NBh8LySQ-14" value="&lt;font face=&quot;Lucida Console&quot;&gt;2&lt;/font&gt;" style="text;html=1;align=center;verticalAlign=middle;whiteSpace=wrap;rounded=0;" parent="1" vertex="1">
          <mxGeometry x="160" y="120" width="40" height="40" as="geometry" />
        </mxCell>
        <mxCell id="b7AsIHiMoh33NBh8LySQ-15" value="&lt;font face=&quot;Lucida Console&quot;&gt;3&lt;/font&gt;" style="text;html=1;align=center;verticalAlign=middle;whiteSpace=wrap;rounded=0;" parent="1" vertex="1">
          <mxGeometry x="200" y="120" width="40" height="40" as="geometry" />
        </mxCell>
        <mxCell id="b7AsIHiMoh33NBh8LySQ-16" value="&lt;font face=&quot;Lucida Console&quot;&gt;4&lt;/font&gt;" style="text;html=1;align=center;verticalAlign=middle;whiteSpace=wrap;rounded=0;" parent="1" vertex="1">
          <mxGeometry x="240" y="120" width="40" height="40" as="geometry" />
        </mxCell>
        <mxCell id="b7AsIHiMoh33NBh8LySQ-17" value="&lt;font face=&quot;Lucida Console&quot;&gt;5&lt;/font&gt;" style="text;html=1;align=center;verticalAlign=middle;whiteSpace=wrap;rounded=0;" parent="1" vertex="1">
          <mxGeometry x="280" y="120" width="40" height="40" as="geometry" />
        </mxCell>
        <mxCell id="b7AsIHiMoh33NBh8LySQ-18" value="&lt;font face=&quot;Lucida Console&quot;&gt;6&lt;/font&gt;" style="text;html=1;align=center;verticalAlign=middle;whiteSpace=wrap;rounded=0;" parent="1" vertex="1">
          <mxGeometry x="320" y="120" width="40" height="40" as="geometry" />
        </mxCell>
        <mxCell id="b7AsIHiMoh33NBh8LySQ-19" value="&lt;font face=&quot;Lucida Console&quot;&gt;7&lt;/font&gt;" style="text;html=1;align=center;verticalAlign=middle;whiteSpace=wrap;rounded=0;" parent="1" vertex="1">
          <mxGeometry x="360" y="120" width="40" height="40" as="geometry" />
        </mxCell>
        <mxCell id="b7AsIHiMoh33NBh8LySQ-20" value="&lt;font face=&quot;Lucida Console&quot;&gt;..&lt;/font&gt;" style="text;html=1;align=center;verticalAlign=middle;whiteSpace=wrap;rounded=0;" parent="1" vertex="1">
          <mxGeometry x="400" y="120" width="40" height="40" as="geometry" />
        </mxCell>
        <mxCell id="b7AsIHiMoh33NBh8LySQ-21" value="&lt;font face=&quot;Lucida Console&quot;&gt;V&lt;/font&gt;" style="text;html=1;align=center;verticalAlign=middle;whiteSpace=wrap;rounded=0;" parent="1" vertex="1">
          <mxGeometry x="440" y="120" width="40" height="40" as="geometry" />
        </mxCell>
        <mxCell id="b7AsIHiMoh33NBh8LySQ-22" value="&lt;font style=&quot;font-size: 10px;&quot; face=&quot;Lucida Console&quot;&gt;(1)&lt;/font&gt;" style="text;html=1;align=center;verticalAlign=middle;whiteSpace=wrap;rounded=0;" parent="1" vertex="1">
          <mxGeometry x="100" y="240" width="20" height="10" as="geometry" />
        </mxCell>
        <mxCell id="b7AsIHiMoh33NBh8LySQ-24" value="&lt;font style=&quot;font-size: 10px;&quot; face=&quot;Lucida Console&quot;&gt;(2)&lt;/font&gt;" style="text;html=1;align=center;verticalAlign=middle;whiteSpace=wrap;rounded=0;" parent="1" vertex="1">
          <mxGeometry x="100" y="250" width="20" height="10" as="geometry" />
        </mxCell>
        <mxCell id="b7AsIHiMoh33NBh8LySQ-25" value="&lt;font style=&quot;font-size: 10px;&quot; face=&quot;Lucida Console&quot;&gt;(4)&lt;/font&gt;" style="text;html=1;align=center;verticalAlign=middle;whiteSpace=wrap;rounded=0;" parent="1" vertex="1">
          <mxGeometry x="100" y="260" width="20" height="10" as="geometry" />
        </mxCell>
        <mxCell id="b7AsIHiMoh33NBh8LySQ-26" value="&lt;font style=&quot;font-size: 10px;&quot; face=&quot;Lucida Console&quot;&gt;(1)&lt;/font&gt;" style="text;html=1;align=center;verticalAlign=middle;whiteSpace=wrap;rounded=0;" parent="1" vertex="1">
          <mxGeometry x="100" y="270" width="20" height="10" as="geometry" />
        </mxCell>
        <mxCell id="b7AsIHiMoh33NBh8LySQ-27" value="&lt;div&gt;&lt;font face=&quot;Lucida Console&quot;&gt;背包原始dp数组&lt;/font&gt;&lt;/div&gt;" style="text;html=1;align=center;verticalAlign=middle;whiteSpace=wrap;rounded=0;" parent="1" vertex="1">
          <mxGeometry x="10" y="73" width="60" height="40" as="geometry" />
        </mxCell>
        <mxCell id="b7AsIHiMoh33NBh8LySQ-29" value="" style="endArrow=classic;html=1;rounded=0;fillColor=#f8cecc;strokeColor=#b85450;" parent="1" edge="1">
          <mxGeometry width="50" height="50" relative="1" as="geometry">
            <mxPoint x="140" y="180" as="sourcePoint" />
            <mxPoint x="460" y="180" as="targetPoint" />
          </mxGeometry>
        </mxCell>
        <mxCell id="b7AsIHiMoh33NBh8LySQ-30" value="" style="endArrow=classic;html=1;rounded=0;fillColor=#f8cecc;strokeColor=#b85450;" parent="1" edge="1">
          <mxGeometry width="50" height="50" relative="1" as="geometry">
            <mxPoint x="140" y="219.66" as="sourcePoint" />
            <mxPoint x="460" y="219.66" as="targetPoint" />
          </mxGeometry>
        </mxCell>
        <mxCell id="b7AsIHiMoh33NBh8LySQ-31" value="" style="endArrow=classic;html=1;rounded=0;fillColor=#f8cecc;strokeColor=#b85450;dashed=1;dashPattern=1 2;jumpStyle=none;jumpSize=6;opacity=30;curved=0;" parent="1" edge="1">
          <mxGeometry width="50" height="50" relative="1" as="geometry">
            <mxPoint x="140" y="260" as="sourcePoint" />
            <mxPoint x="460" y="260" as="targetPoint" />
          </mxGeometry>
        </mxCell>
        <mxCell id="b7AsIHiMoh33NBh8LySQ-32" value="" style="endArrow=classic;html=1;rounded=0;fillColor=#f8cecc;strokeColor=#b85450;" parent="1" edge="1">
          <mxGeometry width="50" height="50" relative="1" as="geometry">
            <mxPoint x="140" y="299.65999999999997" as="sourcePoint" />
            <mxPoint x="460" y="299.65999999999997" as="targetPoint" />
          </mxGeometry>
        </mxCell>
        <mxCell id="b7AsIHiMoh33NBh8LySQ-33" value="" style="endArrow=classic;html=1;rounded=0;fillColor=#f8cecc;strokeColor=#b85450;" parent="1" edge="1">
          <mxGeometry width="50" height="50" relative="1" as="geometry">
            <mxPoint x="140" y="379.65999999999997" as="sourcePoint" />
            <mxPoint x="460" y="379.65999999999997" as="targetPoint" />
          </mxGeometry>
        </mxCell>
        <mxCell id="b7AsIHiMoh33NBh8LySQ-34" value="&lt;font color=&quot;#0066cc&quot;&gt;多重背包&lt;/font&gt;&lt;div&gt;&lt;font color=&quot;#0066cc&quot;&gt;二进制优化&lt;/font&gt;&lt;/div&gt;&lt;div&gt;&lt;font color=&quot;#0066cc&quot;&gt;s[3]=8&lt;/font&gt;&lt;/div&gt;" style="text;html=1;align=center;verticalAlign=middle;whiteSpace=wrap;rounded=0;" parent="1" vertex="1">
          <mxGeometry x="10" y="240" width="70" height="40" as="geometry" />
        </mxCell>
        <mxCell id="b7AsIHiMoh33NBh8LySQ-35" value="&lt;div&gt;&lt;span style=&quot;font-family: &amp;quot;Lucida Console&amp;quot;; background-color: initial;&quot;&gt;01&amp;nbsp;&lt;/span&gt;&lt;font style=&quot;background-color: initial;&quot; face=&quot;Lucida Console&quot;&gt;背包: &lt;/font&gt;&lt;font style=&quot;background-color: initial;&quot; face=&quot;Tahoma&quot;&gt;dp[i][j] = max(dp[i-1][j], dp[i-1][j-v[i]] + w[i])&lt;/font&gt;&lt;/div&gt;&lt;div&gt;&lt;font face=&quot;Tahoma&quot;&gt;完全背包：dp[i][j] = max(dp[i-1][j], dp[ i&amp;nbsp; ][j-v[i]] + w[i])&lt;/font&gt;&lt;/div&gt;&lt;div&gt;&lt;font face=&quot;Tahoma&quot;&gt;多重背包：dp[i][j] = max(dp[i-1][j], dp[i-1][j-v[i]] + w[i],&amp;nbsp;&lt;/font&gt;&lt;span style=&quot;font-family: Tahoma; background-color: initial;&quot;&gt;dp[i-1][j-2·v[i]] + 2·w[i], .., dp[i-1][j-s[i]·v[i]] + s[i]·w[i]&lt;/span&gt;&lt;span style=&quot;font-family: Tahoma; background-color: initial;&quot;&gt;)&lt;/span&gt;&lt;/div&gt;" style="text;html=1;align=left;verticalAlign=middle;whiteSpace=wrap;rounded=0;" parent="1" vertex="1">
          <mxGeometry x="90" y="64" width="630" height="50" as="geometry" />
        </mxCell>
        <mxCell id="b7AsIHiMoh33NBh8LySQ-36" value="" style="shape=curlyBracket;whiteSpace=wrap;html=1;rounded=1;labelPosition=left;verticalLabelPosition=middle;align=right;verticalAlign=middle;size=0.5;" parent="1" vertex="1">
          <mxGeometry x="71" y="69" width="10" height="44" as="geometry" />
        </mxCell>
        <mxCell id="b7AsIHiMoh33NBh8LySQ-37" value="" style="endArrow=classic;html=1;rounded=0;fillColor=#dae8fc;strokeColor=#6c8ebf;" parent="1" edge="1">
          <mxGeometry width="50" height="50" relative="1" as="geometry">
            <mxPoint x="140" y="245" as="sourcePoint" />
            <mxPoint x="140" y="275" as="targetPoint" />
          </mxGeometry>
        </mxCell>
        <mxCell id="b7AsIHiMoh33NBh8LySQ-40" value="" style="endArrow=classic;html=1;rounded=0;fillColor=#dae8fc;strokeColor=#6c8ebf;" parent="1" edge="1">
          <mxGeometry width="50" height="50" relative="1" as="geometry">
            <mxPoint x="179.88000000000002" y="245" as="sourcePoint" />
            <mxPoint x="179.88000000000002" y="275" as="targetPoint" />
          </mxGeometry>
        </mxCell>
        <mxCell id="b7AsIHiMoh33NBh8LySQ-41" value="" style="endArrow=classic;html=1;rounded=0;fillColor=#dae8fc;strokeColor=#6c8ebf;" parent="1" edge="1">
          <mxGeometry width="50" height="50" relative="1" as="geometry">
            <mxPoint x="219.88000000000002" y="245" as="sourcePoint" />
            <mxPoint x="219.88000000000002" y="275" as="targetPoint" />
          </mxGeometry>
        </mxCell>
        <mxCell id="b7AsIHiMoh33NBh8LySQ-42" value="" style="endArrow=classic;html=1;rounded=0;fillColor=#dae8fc;strokeColor=#6c8ebf;" parent="1" edge="1">
          <mxGeometry width="50" height="50" relative="1" as="geometry">
            <mxPoint x="259.88" y="245" as="sourcePoint" />
            <mxPoint x="259.88" y="275" as="targetPoint" />
          </mxGeometry>
        </mxCell>
        <mxCell id="b7AsIHiMoh33NBh8LySQ-43" value="" style="endArrow=classic;html=1;rounded=0;fillColor=#dae8fc;strokeColor=#6c8ebf;" parent="1" edge="1">
          <mxGeometry width="50" height="50" relative="1" as="geometry">
            <mxPoint x="299.88" y="245" as="sourcePoint" />
            <mxPoint x="299.88" y="275" as="targetPoint" />
          </mxGeometry>
        </mxCell>
        <mxCell id="b7AsIHiMoh33NBh8LySQ-44" value="" style="endArrow=classic;html=1;rounded=0;fillColor=#dae8fc;strokeColor=#6c8ebf;" parent="1" edge="1">
          <mxGeometry width="50" height="50" relative="1" as="geometry">
            <mxPoint x="339.88" y="245" as="sourcePoint" />
            <mxPoint x="339.88" y="275" as="targetPoint" />
          </mxGeometry>
        </mxCell>
        <mxCell id="b7AsIHiMoh33NBh8LySQ-45" value="" style="endArrow=classic;html=1;rounded=0;fillColor=#dae8fc;strokeColor=#6c8ebf;" parent="1" edge="1">
          <mxGeometry width="50" height="50" relative="1" as="geometry">
            <mxPoint x="379.83" y="245" as="sourcePoint" />
            <mxPoint x="379.83" y="275" as="targetPoint" />
          </mxGeometry>
        </mxCell>
        <mxCell id="b7AsIHiMoh33NBh8LySQ-46" value="" style="endArrow=classic;html=1;rounded=0;fillColor=#dae8fc;strokeColor=#6c8ebf;" parent="1" edge="1">
          <mxGeometry width="50" height="50" relative="1" as="geometry">
            <mxPoint x="419.83" y="245" as="sourcePoint" />
            <mxPoint x="419.83" y="275" as="targetPoint" />
          </mxGeometry>
        </mxCell>
        <mxCell id="b7AsIHiMoh33NBh8LySQ-47" value="" style="endArrow=classic;html=1;rounded=0;fillColor=#dae8fc;strokeColor=#6c8ebf;" parent="1" edge="1">
          <mxGeometry width="50" height="50" relative="1" as="geometry">
            <mxPoint x="459.83" y="245" as="sourcePoint" />
            <mxPoint x="459.83" y="275" as="targetPoint" />
          </mxGeometry>
        </mxCell>
        <mxCell id="b7AsIHiMoh33NBh8LySQ-48" value="" style="endArrow=none;dashed=1;html=1;rounded=0;fillColor=#f8cecc;strokeColor=#b85450;dashPattern=1 1;" parent="1" edge="1">
          <mxGeometry width="50" height="50" relative="1" as="geometry">
            <mxPoint x="140" y="220" as="sourcePoint" />
            <mxPoint x="460" y="180" as="targetPoint" />
          </mxGeometry>
        </mxCell>
        <mxCell id="b7AsIHiMoh33NBh8LySQ-49" value="" style="endArrow=none;dashed=1;html=1;rounded=0;fillColor=#f8cecc;strokeColor=#b85450;dashPattern=1 1;" parent="1" edge="1">
          <mxGeometry width="50" height="50" relative="1" as="geometry">
            <mxPoint x="141" y="380" as="sourcePoint" />
            <mxPoint x="461" y="340" as="targetPoint" />
          </mxGeometry>
        </mxCell>
        <mxCell id="b7AsIHiMoh33NBh8LySQ-50" value="" style="endArrow=classic;html=1;rounded=0;fillColor=#f8cecc;strokeColor=#b85450;" parent="1" edge="1">
          <mxGeometry width="50" height="50" relative="1" as="geometry">
            <mxPoint x="141" y="339.71" as="sourcePoint" />
            <mxPoint x="461" y="339.71" as="targetPoint" />
          </mxGeometry>
        </mxCell>
        <mxCell id="b7AsIHiMoh33NBh8LySQ-51" value="" style="endArrow=none;dashed=1;html=1;rounded=0;fillColor=#f8cecc;strokeColor=#b85450;dashPattern=1 1;" parent="1" edge="1">
          <mxGeometry width="50" height="50" relative="1" as="geometry">
            <mxPoint x="140" y="340" as="sourcePoint" />
            <mxPoint x="460" y="300" as="targetPoint" />
          </mxGeometry>
        </mxCell>
        <mxCell id="b7AsIHiMoh33NBh8LySQ-52" value="" style="endArrow=none;dashed=1;html=1;rounded=0;fillColor=#dae8fc;strokeColor=#6c8ebf;dashPattern=1 1;" parent="1" edge="1">
          <mxGeometry width="50" height="50" relative="1" as="geometry">
            <mxPoint x="140" y="245" as="sourcePoint" />
            <mxPoint x="460" y="220" as="targetPoint" />
          </mxGeometry>
        </mxCell>
        <mxCell id="b7AsIHiMoh33NBh8LySQ-53" value="" style="endArrow=none;dashed=1;html=1;rounded=0;fillColor=#dae8fc;strokeColor=#6c8ebf;dashPattern=1 1;" parent="1" edge="1">
          <mxGeometry width="50" height="50" relative="1" as="geometry">
            <mxPoint x="140" y="275" as="sourcePoint" />
            <mxPoint x="180" y="245" as="targetPoint" />
          </mxGeometry>
        </mxCell>
        <mxCell id="b7AsIHiMoh33NBh8LySQ-54" value="" style="endArrow=none;dashed=1;html=1;rounded=0;fillColor=#dae8fc;strokeColor=#6c8ebf;dashPattern=1 1;" parent="1" edge="1">
          <mxGeometry width="50" height="50" relative="1" as="geometry">
            <mxPoint x="180" y="275" as="sourcePoint" />
            <mxPoint x="220" y="245" as="targetPoint" />
          </mxGeometry>
        </mxCell>
        <mxCell id="b7AsIHiMoh33NBh8LySQ-55" value="" style="endArrow=none;dashed=1;html=1;rounded=0;fillColor=#dae8fc;strokeColor=#6c8ebf;dashPattern=1 1;" parent="1" edge="1">
          <mxGeometry width="50" height="50" relative="1" as="geometry">
            <mxPoint x="220" y="275" as="sourcePoint" />
            <mxPoint x="260" y="245" as="targetPoint" />
          </mxGeometry>
        </mxCell>
        <mxCell id="b7AsIHiMoh33NBh8LySQ-56" value="" style="endArrow=none;dashed=1;html=1;rounded=0;fillColor=#dae8fc;strokeColor=#6c8ebf;dashPattern=1 1;" parent="1" edge="1">
          <mxGeometry width="50" height="50" relative="1" as="geometry">
            <mxPoint x="260" y="275" as="sourcePoint" />
            <mxPoint x="300" y="245" as="targetPoint" />
          </mxGeometry>
        </mxCell>
        <mxCell id="b7AsIHiMoh33NBh8LySQ-57" value="" style="endArrow=none;dashed=1;html=1;rounded=0;fillColor=#dae8fc;strokeColor=#6c8ebf;dashPattern=1 1;" parent="1" edge="1">
          <mxGeometry width="50" height="50" relative="1" as="geometry">
            <mxPoint x="300" y="275" as="sourcePoint" />
            <mxPoint x="340" y="245" as="targetPoint" />
          </mxGeometry>
        </mxCell>
        <mxCell id="b7AsIHiMoh33NBh8LySQ-58" value="" style="endArrow=none;dashed=1;html=1;rounded=0;fillColor=#dae8fc;strokeColor=#6c8ebf;dashPattern=1 1;" parent="1" edge="1">
          <mxGeometry width="50" height="50" relative="1" as="geometry">
            <mxPoint x="340" y="275" as="sourcePoint" />
            <mxPoint x="380" y="245" as="targetPoint" />
          </mxGeometry>
        </mxCell>
        <mxCell id="b7AsIHiMoh33NBh8LySQ-59" value="" style="endArrow=none;dashed=1;html=1;rounded=0;fillColor=#dae8fc;strokeColor=#6c8ebf;dashPattern=1 1;" parent="1" edge="1">
          <mxGeometry width="50" height="50" relative="1" as="geometry">
            <mxPoint x="380" y="275" as="sourcePoint" />
            <mxPoint x="420" y="245" as="targetPoint" />
          </mxGeometry>
        </mxCell>
        <mxCell id="b7AsIHiMoh33NBh8LySQ-60" value="" style="endArrow=none;dashed=1;html=1;rounded=0;fillColor=#dae8fc;strokeColor=#6c8ebf;dashPattern=1 1;" parent="1" edge="1">
          <mxGeometry width="50" height="50" relative="1" as="geometry">
            <mxPoint x="420" y="275" as="sourcePoint" />
            <mxPoint x="460" y="245" as="targetPoint" />
          </mxGeometry>
        </mxCell>
        <mxCell id="b7AsIHiMoh33NBh8LySQ-61" value="" style="endArrow=none;dashed=1;html=1;rounded=0;fillColor=#dae8fc;strokeColor=#6c8ebf;dashPattern=1 1;" parent="1" edge="1">
          <mxGeometry width="50" height="50" relative="1" as="geometry">
            <mxPoint x="140" y="299" as="sourcePoint" />
            <mxPoint x="460" y="274" as="targetPoint" />
          </mxGeometry>
        </mxCell>
        <mxCell id="b7AsIHiMoh33NBh8LySQ-62" value="" style="ellipse;whiteSpace=wrap;html=1;aspect=fixed;fillColor=#d5e8d4;strokeColor=#82b366;strokeWidth=2;" parent="1" vertex="1">
          <mxGeometry x="335" y="214" width="10" height="10" as="geometry" />
        </mxCell>
        <mxCell id="b7AsIHiMoh33NBh8LySQ-64" value="&lt;font face=&quot;Lucida Console&quot;&gt;写混合背包时发觉：&lt;/font&gt;&lt;div&gt;&lt;font face=&quot;Lucida Console&quot;&gt;&lt;br&gt;&lt;/font&gt;&lt;/div&gt;&lt;div&gt;&lt;font face=&quot;Lucida Console&quot;&gt;对于没有压缩的背包dp，i和j的循环顺序从左到右和从上到下都可；所以可以将多重背包的二进制优化写法放在[j]循环内，从而内部就是从上到下的更新顺序&lt;/font&gt;&lt;/div&gt;&lt;div&gt;&lt;font face=&quot;Lucida Console&quot;&gt;&lt;br&gt;&lt;/font&gt;&lt;/div&gt;&lt;div&gt;&lt;font face=&quot;Lucida Console&quot;&gt;（之前多重背包使直接先拆成01背包在进入[j]循环，即更新顺序都是从左到右）&lt;/font&gt;&lt;/div&gt;" style="text;html=1;align=left;verticalAlign=middle;whiteSpace=wrap;rounded=0;" parent="1" vertex="1">
          <mxGeometry x="490" y="160" width="230" height="160" as="geometry" />
        </mxCell>
        <mxCell id="b7AsIHiMoh33NBh8LySQ-66" value="&lt;font color=&quot;#990000&quot; face=&quot;Lucida Console&quot;&gt;错误！在优化内部的拆分并没有数组记录&lt;/font&gt;&lt;div&gt;&lt;font color=&quot;#006600&quot;&gt;所以还得在[j]循环外就要分清类型&lt;/font&gt;&lt;/div&gt;" style="text;html=1;align=left;verticalAlign=middle;whiteSpace=wrap;rounded=0;" parent="1" vertex="1">
          <mxGeometry x="490" y="360" width="230" height="30" as="geometry" />
        </mxCell>
        <mxCell id="1ED4RVVmAUTitH_Si6eS-1" value="" style="endArrow=classic;html=1;rounded=0;startSize=3;endSize=3;" edge="1" parent="1">
          <mxGeometry width="50" height="50" relative="1" as="geometry">
            <mxPoint x="200" y="720" as="sourcePoint" />
            <mxPoint x="400" y="720" as="targetPoint" />
          </mxGeometry>
        </mxCell>
        <mxCell id="1ED4RVVmAUTitH_Si6eS-2" value="x" style="edgeLabel;html=1;align=center;verticalAlign=middle;resizable=0;points=[];labelBackgroundColor=none;" vertex="1" connectable="0" parent="1ED4RVVmAUTitH_Si6eS-1">
          <mxGeometry x="0.8819" relative="1" as="geometry">
            <mxPoint x="17" as="offset" />
          </mxGeometry>
        </mxCell>
        <mxCell id="1ED4RVVmAUTitH_Si6eS-3" value="" style="endArrow=classic;html=1;rounded=0;startSize=3;endSize=3;" edge="1" parent="1">
          <mxGeometry width="50" height="50" relative="1" as="geometry">
            <mxPoint x="200" y="720" as="sourcePoint" />
            <mxPoint x="200" y="520" as="targetPoint" />
          </mxGeometry>
        </mxCell>
        <mxCell id="1ED4RVVmAUTitH_Si6eS-4" value="y" style="edgeLabel;html=1;align=center;verticalAlign=middle;resizable=0;points=[];labelBackgroundColor=none;" vertex="1" connectable="0" parent="1ED4RVVmAUTitH_Si6eS-3">
          <mxGeometry x="0.8389" relative="1" as="geometry">
            <mxPoint x="-1" y="-25" as="offset" />
          </mxGeometry>
        </mxCell>
        <mxCell id="1ED4RVVmAUTitH_Si6eS-5" value="" style="whiteSpace=wrap;html=1;aspect=fixed;fillColor=none;" vertex="1" parent="1">
          <mxGeometry x="240" y="600" width="80" height="80" as="geometry" />
        </mxCell>
        <mxCell id="1ED4RVVmAUTitH_Si6eS-8" value="" style="rounded=0;whiteSpace=wrap;html=1;fillColor=none;" vertex="1" parent="1">
          <mxGeometry x="280" y="550" width="80" height="90" as="geometry" />
        </mxCell>
        <mxCell id="1ED4RVVmAUTitH_Si6eS-10" value="&lt;font style=&quot;font-size: 8px;&quot;&gt;(10, 10)&lt;/font&gt;" style="text;html=1;align=center;verticalAlign=middle;whiteSpace=wrap;rounded=0;" vertex="1" parent="1">
          <mxGeometry x="225" y="680" width="30" height="10" as="geometry" />
        </mxCell>
        <mxCell id="1ED4RVVmAUTitH_Si6eS-11" value="&lt;font style=&quot;font-size: 8px;&quot;&gt;(20, 20)&lt;/font&gt;" style="text;html=1;align=center;verticalAlign=middle;whiteSpace=wrap;rounded=0;" vertex="1" parent="1">
          <mxGeometry x="310" y="588" width="30" height="10" as="geometry" />
        </mxCell>
        <mxCell id="1ED4RVVmAUTitH_Si6eS-12" value="&lt;font style=&quot;font-size: 8px;&quot;&gt;(15, 15)&lt;/font&gt;" style="text;html=1;align=center;verticalAlign=middle;whiteSpace=wrap;rounded=0;" vertex="1" parent="1">
          <mxGeometry x="265" y="640" width="30" height="10" as="geometry" />
        </mxCell>
        <mxCell id="1ED4RVVmAUTitH_Si6eS-13" value="&lt;font style=&quot;font-size: 8px;&quot;&gt;(25, 25.5)&lt;/font&gt;" style="text;html=1;align=center;verticalAlign=middle;whiteSpace=wrap;rounded=0;" vertex="1" parent="1">
          <mxGeometry x="348" y="536" width="42" height="10" as="geometry" />
        </mxCell>
        <mxCell id="1ED4RVVmAUTitH_Si6eS-14" value="" style="endArrow=none;dashed=1;html=1;strokeWidth=1;rounded=0;dashPattern=1 1;" edge="1" parent="1">
          <mxGeometry width="50" height="50" relative="1" as="geometry">
            <mxPoint x="240" y="720" as="sourcePoint" />
            <mxPoint x="240" y="520" as="targetPoint" />
          </mxGeometry>
        </mxCell>
        <mxCell id="1ED4RVVmAUTitH_Si6eS-15" value="" style="endArrow=none;dashed=1;html=1;strokeWidth=1;rounded=0;dashPattern=1 1;" edge="1" parent="1">
          <mxGeometry width="50" height="50" relative="1" as="geometry">
            <mxPoint x="280" y="720" as="sourcePoint" />
            <mxPoint x="280" y="520" as="targetPoint" />
          </mxGeometry>
        </mxCell>
        <mxCell id="1ED4RVVmAUTitH_Si6eS-16" value="" style="endArrow=none;dashed=1;html=1;strokeWidth=1;rounded=0;dashPattern=1 1;" edge="1" parent="1">
          <mxGeometry width="50" height="50" relative="1" as="geometry">
            <mxPoint x="320.52" y="720" as="sourcePoint" />
            <mxPoint x="320.52" y="520" as="targetPoint" />
          </mxGeometry>
        </mxCell>
        <mxCell id="1ED4RVVmAUTitH_Si6eS-17" value="" style="endArrow=none;dashed=1;html=1;strokeWidth=1;rounded=0;dashPattern=1 1;" edge="1" parent="1">
          <mxGeometry width="50" height="50" relative="1" as="geometry">
            <mxPoint x="360.52" y="720" as="sourcePoint" />
            <mxPoint x="360.52" y="520" as="targetPoint" />
          </mxGeometry>
        </mxCell>
        <mxCell id="1ED4RVVmAUTitH_Si6eS-18" value="&lt;font style=&quot;font-size: 8px;&quot;&gt;10.0&lt;/font&gt;" style="text;html=1;align=center;verticalAlign=middle;whiteSpace=wrap;rounded=0;" vertex="1" parent="1">
          <mxGeometry x="230" y="720" width="20" height="20" as="geometry" />
        </mxCell>
        <mxCell id="1ED4RVVmAUTitH_Si6eS-19" value="&lt;font style=&quot;font-size: 8px;&quot;&gt;15.0&lt;/font&gt;" style="text;html=1;align=center;verticalAlign=middle;whiteSpace=wrap;rounded=0;" vertex="1" parent="1">
          <mxGeometry x="270" y="720" width="20" height="20" as="geometry" />
        </mxCell>
        <mxCell id="1ED4RVVmAUTitH_Si6eS-20" value="&lt;font style=&quot;font-size: 8px;&quot;&gt;20.0&lt;/font&gt;" style="text;html=1;align=center;verticalAlign=middle;whiteSpace=wrap;rounded=0;" vertex="1" parent="1">
          <mxGeometry x="310" y="720" width="20" height="20" as="geometry" />
        </mxCell>
        <mxCell id="1ED4RVVmAUTitH_Si6eS-21" value="&lt;font style=&quot;font-size: 8px;&quot;&gt;25.0&lt;/font&gt;" style="text;html=1;align=center;verticalAlign=middle;whiteSpace=wrap;rounded=0;" vertex="1" parent="1">
          <mxGeometry x="348" y="720" width="20" height="20" as="geometry" />
        </mxCell>
        <mxCell id="1ED4RVVmAUTitH_Si6eS-25" value="" style="endArrow=none;html=1;rounded=0;fillColor=#d5e8d4;strokeColor=#82b366;exitX=0;exitY=1;exitDx=0;exitDy=0;strokeWidth=2;entryX=0;entryY=0;entryDx=0;entryDy=0;" edge="1" parent="1" source="1ED4RVVmAUTitH_Si6eS-8" target="1ED4RVVmAUTitH_Si6eS-8">
          <mxGeometry width="50" height="50" relative="1" as="geometry">
            <mxPoint x="279.52" y="640" as="sourcePoint" />
            <mxPoint x="280" y="550" as="targetPoint" />
          </mxGeometry>
        </mxCell>
        <mxCell id="1ED4RVVmAUTitH_Si6eS-26" value="&lt;font style=&quot;color: rgb(77, 153, 0);&quot;&gt;+1&lt;/font&gt;" style="edgeLabel;html=1;align=center;verticalAlign=middle;resizable=0;points=[];labelBackgroundColor=none;" vertex="1" connectable="0" parent="1ED4RVVmAUTitH_Si6eS-25">
          <mxGeometry x="0.2821" y="-1" relative="1" as="geometry">
            <mxPoint x="7" y="11" as="offset" />
          </mxGeometry>
        </mxCell>
        <mxCell id="1ED4RVVmAUTitH_Si6eS-27" value="" style="endArrow=none;html=1;rounded=0;fillColor=#f8cecc;strokeColor=#b85450;entryX=1;entryY=0;entryDx=0;entryDy=0;exitX=1;exitY=1;exitDx=0;exitDy=0;strokeWidth=2;" edge="1" parent="1" source="1ED4RVVmAUTitH_Si6eS-8" target="1ED4RVVmAUTitH_Si6eS-8">
          <mxGeometry width="50" height="50" relative="1" as="geometry">
            <mxPoint x="360" y="640" as="sourcePoint" />
            <mxPoint x="360" y="550" as="targetPoint" />
          </mxGeometry>
        </mxCell>
        <mxCell id="1ED4RVVmAUTitH_Si6eS-28" value="&lt;font style=&quot;color: rgb(184, 84, 80);&quot;&gt;-1&lt;/font&gt;" style="edgeLabel;html=1;align=center;verticalAlign=middle;resizable=0;points=[];labelBackgroundColor=none;" vertex="1" connectable="0" parent="1ED4RVVmAUTitH_Si6eS-27">
          <mxGeometry x="0.2821" y="-1" relative="1" as="geometry">
            <mxPoint x="7" y="11" as="offset" />
          </mxGeometry>
        </mxCell>
        <mxCell id="1ED4RVVmAUTitH_Si6eS-30" value="" style="endArrow=none;html=1;rounded=0;fillColor=#f8cecc;strokeColor=#b85450;entryX=1;entryY=0;entryDx=0;entryDy=0;exitX=1;exitY=1;exitDx=0;exitDy=0;strokeWidth=2;" edge="1" parent="1" source="1ED4RVVmAUTitH_Si6eS-5" target="1ED4RVVmAUTitH_Si6eS-5">
          <mxGeometry width="50" height="50" relative="1" as="geometry">
            <mxPoint x="320" y="690" as="sourcePoint" />
            <mxPoint x="320" y="600" as="targetPoint" />
          </mxGeometry>
        </mxCell>
        <mxCell id="1ED4RVVmAUTitH_Si6eS-31" value="&lt;font style=&quot;color: rgb(184, 84, 80);&quot;&gt;-1&lt;/font&gt;" style="edgeLabel;html=1;align=center;verticalAlign=middle;resizable=0;points=[];labelBackgroundColor=none;" vertex="1" connectable="0" parent="1ED4RVVmAUTitH_Si6eS-30">
          <mxGeometry x="0.2821" y="-1" relative="1" as="geometry">
            <mxPoint x="4" y="16" as="offset" />
          </mxGeometry>
        </mxCell>
        <mxCell id="1ED4RVVmAUTitH_Si6eS-32" value="" style="endArrow=none;dashed=1;html=1;strokeWidth=1;rounded=0;fillColor=#dae8fc;strokeColor=#6c8ebf;" edge="1" parent="1">
          <mxGeometry width="50" height="50" relative="1" as="geometry">
            <mxPoint x="200" y="680" as="sourcePoint" />
            <mxPoint x="360" y="680" as="targetPoint" />
          </mxGeometry>
        </mxCell>
        <mxCell id="1ED4RVVmAUTitH_Si6eS-23" value="" style="endArrow=none;html=1;rounded=0;fillColor=#d5e8d4;strokeColor=#82b366;entryX=0;entryY=0;entryDx=0;entryDy=0;exitX=0;exitY=1;exitDx=0;exitDy=0;strokeWidth=2;" edge="1" parent="1" source="1ED4RVVmAUTitH_Si6eS-5" target="1ED4RVVmAUTitH_Si6eS-5">
          <mxGeometry width="50" height="50" relative="1" as="geometry">
            <mxPoint x="195" y="665" as="sourcePoint" />
            <mxPoint x="245" y="615" as="targetPoint" />
          </mxGeometry>
        </mxCell>
        <mxCell id="1ED4RVVmAUTitH_Si6eS-24" value="&lt;font style=&quot;color: rgb(77, 153, 0);&quot;&gt;+1&lt;/font&gt;" style="edgeLabel;html=1;align=center;verticalAlign=middle;resizable=0;points=[];" vertex="1" connectable="0" parent="1ED4RVVmAUTitH_Si6eS-23">
          <mxGeometry x="0.2821" y="-1" relative="1" as="geometry">
            <mxPoint x="7" y="11" as="offset" />
          </mxGeometry>
        </mxCell>
        <mxCell id="1ED4RVVmAUTitH_Si6eS-36" value="&lt;font style=&quot;font-size: 8px; color: rgb(108, 142, 191);&quot;&gt;10.0&lt;/font&gt;" style="text;html=1;align=center;verticalAlign=middle;whiteSpace=wrap;rounded=0;" vertex="1" parent="1">
          <mxGeometry x="181" y="669" width="20" height="20" as="geometry" />
        </mxCell>
        <mxCell id="1ED4RVVmAUTitH_Si6eS-37" value="&lt;font style=&quot;font-size: 8px; color: rgb(108, 142, 191);&quot;&gt;15.0&lt;/font&gt;" style="text;html=1;align=center;verticalAlign=middle;whiteSpace=wrap;rounded=0;" vertex="1" parent="1">
          <mxGeometry x="181" y="629" width="20" height="20" as="geometry" />
        </mxCell>
        <mxCell id="1ED4RVVmAUTitH_Si6eS-38" value="&lt;font style=&quot;font-size: 8px; color: rgb(108, 142, 191);&quot;&gt;20.0&lt;/font&gt;" style="text;html=1;align=center;verticalAlign=middle;whiteSpace=wrap;rounded=0;" vertex="1" parent="1">
          <mxGeometry x="181" y="589" width="20" height="20" as="geometry" />
        </mxCell>
        <mxCell id="1ED4RVVmAUTitH_Si6eS-39" value="&lt;font style=&quot;font-size: 8px; color: rgb(108, 142, 191);&quot;&gt;25.5&lt;/font&gt;" style="text;html=1;align=center;verticalAlign=middle;whiteSpace=wrap;rounded=0;" vertex="1" parent="1">
          <mxGeometry x="181" y="540" width="20" height="20" as="geometry" />
        </mxCell>
        <mxCell id="1ED4RVVmAUTitH_Si6eS-40" value="&lt;font style=&quot;font-size: 8px; color: rgb(108, 142, 191);&quot;&gt;3&lt;/font&gt;" style="text;html=1;align=center;verticalAlign=middle;whiteSpace=wrap;rounded=0;" vertex="1" parent="1">
          <mxGeometry x="166" y="540" width="13" height="20" as="geometry" />
        </mxCell>
        <mxCell id="1ED4RVVmAUTitH_Si6eS-41" value="&lt;font style=&quot;font-size: 8px; color: rgb(108, 142, 191);&quot;&gt;2&lt;/font&gt;" style="text;html=1;align=center;verticalAlign=middle;whiteSpace=wrap;rounded=0;" vertex="1" parent="1">
          <mxGeometry x="166" y="590" width="13" height="20" as="geometry" />
        </mxCell>
        <mxCell id="1ED4RVVmAUTitH_Si6eS-42" value="&lt;font style=&quot;font-size: 8px; color: rgb(108, 142, 191);&quot;&gt;1&lt;/font&gt;" style="text;html=1;align=center;verticalAlign=middle;whiteSpace=wrap;rounded=0;" vertex="1" parent="1">
          <mxGeometry x="166" y="630" width="13" height="20" as="geometry" />
        </mxCell>
        <mxCell id="1ED4RVVmAUTitH_Si6eS-43" value="&lt;font style=&quot;font-size: 8px; color: rgb(108, 142, 191);&quot;&gt;0&lt;/font&gt;" style="text;html=1;align=center;verticalAlign=middle;whiteSpace=wrap;rounded=0;" vertex="1" parent="1">
          <mxGeometry x="166" y="670" width="13" height="20" as="geometry" />
        </mxCell>
        <mxCell id="1ED4RVVmAUTitH_Si6eS-44" value="" style="curved=1;endArrow=classic;html=1;rounded=0;endSize=3;startSize=3;fillColor=#dae8fc;strokeColor=#6c8ebf;" edge="1" parent="1">
          <mxGeometry width="50" height="50" relative="1" as="geometry">
            <mxPoint x="190" y="540" as="sourcePoint" />
            <mxPoint x="170" y="540" as="targetPoint" />
            <Array as="points">
              <mxPoint x="180" y="510" />
            </Array>
          </mxGeometry>
        </mxCell>
        <mxCell id="1ED4RVVmAUTitH_Si6eS-47" value="&lt;font style=&quot;color: rgb(108, 142, 191); font-size: 7px;&quot;&gt;离散化&lt;/font&gt;" style="edgeLabel;html=1;align=center;verticalAlign=middle;resizable=0;points=[];labelBackgroundColor=none;" vertex="1" connectable="0" parent="1ED4RVVmAUTitH_Si6eS-44">
          <mxGeometry x="-0.7474" y="1" relative="1" as="geometry">
            <mxPoint x="-9" y="-18" as="offset" />
          </mxGeometry>
        </mxCell>
        <mxCell id="1ED4RVVmAUTitH_Si6eS-46" value="" style="endArrow=none;html=1;rounded=0;fillColor=#dae8fc;strokeColor=#6c8ebf;" edge="1" parent="1" source="1ED4RVVmAUTitH_Si6eS-49">
          <mxGeometry width="50" height="50" relative="1" as="geometry">
            <mxPoint x="179.72" y="700" as="sourcePoint" />
            <mxPoint x="179.72" y="530" as="targetPoint" />
          </mxGeometry>
        </mxCell>
        <mxCell id="1ED4RVVmAUTitH_Si6eS-51" value="" style="endArrow=none;html=1;rounded=0;fillColor=#dae8fc;strokeColor=#6c8ebf;" edge="1" parent="1" source="1ED4RVVmAUTitH_Si6eS-53" target="1ED4RVVmAUTitH_Si6eS-50">
          <mxGeometry width="50" height="50" relative="1" as="geometry">
            <mxPoint x="179.72" y="700" as="sourcePoint" />
            <mxPoint x="179.72" y="530" as="targetPoint" />
          </mxGeometry>
        </mxCell>
        <mxCell id="1ED4RVVmAUTitH_Si6eS-50" value="" style="ellipse;whiteSpace=wrap;html=1;aspect=fixed;fillColor=#6C8EBF;strokeColor=#6c8ebf;" vertex="1" parent="1">
          <mxGeometry x="179" y="599" width="2" height="2" as="geometry" />
        </mxCell>
        <mxCell id="1ED4RVVmAUTitH_Si6eS-52" value="" style="endArrow=none;html=1;rounded=0;fillColor=#dae8fc;strokeColor=#6c8ebf;" edge="1" parent="1" source="1ED4RVVmAUTitH_Si6eS-50" target="1ED4RVVmAUTitH_Si6eS-49">
          <mxGeometry width="50" height="50" relative="1" as="geometry">
            <mxPoint x="180" y="599" as="sourcePoint" />
            <mxPoint x="179.72" y="530" as="targetPoint" />
          </mxGeometry>
        </mxCell>
        <mxCell id="1ED4RVVmAUTitH_Si6eS-49" value="" style="ellipse;whiteSpace=wrap;html=1;aspect=fixed;fillColor=#6C8EBF;strokeColor=#6c8ebf;" vertex="1" parent="1">
          <mxGeometry x="179" y="549" width="2" height="2" as="geometry" />
        </mxCell>
        <mxCell id="1ED4RVVmAUTitH_Si6eS-54" value="" style="endArrow=none;html=1;rounded=0;fillColor=#dae8fc;strokeColor=#6c8ebf;" edge="1" parent="1" source="1ED4RVVmAUTitH_Si6eS-55" target="1ED4RVVmAUTitH_Si6eS-53">
          <mxGeometry width="50" height="50" relative="1" as="geometry">
            <mxPoint x="179.72" y="700" as="sourcePoint" />
            <mxPoint x="180" y="601" as="targetPoint" />
          </mxGeometry>
        </mxCell>
        <mxCell id="1ED4RVVmAUTitH_Si6eS-53" value="" style="ellipse;whiteSpace=wrap;html=1;aspect=fixed;fillColor=#6C8EBF;strokeColor=#6c8ebf;" vertex="1" parent="1">
          <mxGeometry x="179" y="639" width="2" height="2" as="geometry" />
        </mxCell>
        <mxCell id="1ED4RVVmAUTitH_Si6eS-56" value="" style="endArrow=none;html=1;rounded=0;fillColor=#dae8fc;strokeColor=#6c8ebf;" edge="1" parent="1" target="1ED4RVVmAUTitH_Si6eS-55">
          <mxGeometry width="50" height="50" relative="1" as="geometry">
            <mxPoint x="179.72" y="700" as="sourcePoint" />
            <mxPoint x="180" y="641" as="targetPoint" />
          </mxGeometry>
        </mxCell>
        <mxCell id="1ED4RVVmAUTitH_Si6eS-55" value="" style="ellipse;whiteSpace=wrap;html=1;aspect=fixed;fillColor=#6C8EBF;strokeColor=#6c8ebf;" vertex="1" parent="1">
          <mxGeometry x="179" y="679" width="2" height="2" as="geometry" />
        </mxCell>
        <mxCell id="1ED4RVVmAUTitH_Si6eS-57" value="&lt;font style=&quot;font-size: 8px; color: rgb(214, 182, 86);&quot;&gt;(2,2)&lt;/font&gt;" style="rounded=0;whiteSpace=wrap;html=1;fillColor=#fff2cc;strokeColor=#d6b656;" vertex="1" parent="1">
          <mxGeometry x="120" y="549" width="20" height="51" as="geometry" />
        </mxCell>
        <mxCell id="1ED4RVVmAUTitH_Si6eS-58" value="&lt;font style=&quot;font-size: 8px; color: rgb(214, 182, 86);&quot;&gt;(1,1)&lt;/font&gt;" style="rounded=0;whiteSpace=wrap;html=1;fillColor=#fff2cc;strokeColor=#d6b656;" vertex="1" parent="1">
          <mxGeometry x="146" y="600" width="20" height="40" as="geometry" />
        </mxCell>
        <mxCell id="1ED4RVVmAUTitH_Si6eS-59" value="&lt;font style=&quot;font-size: 8px; color: rgb(214, 182, 86);&quot;&gt;(0,0)&lt;/font&gt;" style="rounded=0;whiteSpace=wrap;html=1;fillColor=#fff2cc;strokeColor=#d6b656;" vertex="1" parent="1">
          <mxGeometry x="146" y="640" width="20" height="40" as="geometry" />
        </mxCell>
        <mxCell id="1ED4RVVmAUTitH_Si6eS-60" value="&lt;font style=&quot;font-size: 8px; color: rgb(214, 182, 86);&quot;&gt;(0,1)&lt;/font&gt;" style="rounded=0;whiteSpace=wrap;html=1;fillColor=#fff2cc;strokeColor=#d6b656;" vertex="1" parent="1">
          <mxGeometry x="120" y="600" width="20" height="80" as="geometry" />
        </mxCell>
        <mxCell id="1ED4RVVmAUTitH_Si6eS-61" value="&lt;font style=&quot;font-size: 8px; color: rgb(214, 182, 86);&quot;&gt;(0,2)&lt;/font&gt;" style="rounded=0;whiteSpace=wrap;html=1;fillColor=#fff2cc;strokeColor=#d6b656;" vertex="1" parent="1">
          <mxGeometry x="94" y="549" width="20" height="131" as="geometry" />
        </mxCell>
        <mxCell id="1ED4RVVmAUTitH_Si6eS-62" value="&lt;font style=&quot;font-size: 7px; color: rgb(214, 182, 86);&quot;&gt;线段树tr[]&lt;/font&gt;" style="text;html=1;align=center;verticalAlign=middle;whiteSpace=wrap;rounded=0;" vertex="1" parent="1">
          <mxGeometry x="106" y="510" width="40" height="19" as="geometry" />
        </mxCell>
        <mxCell id="1ED4RVVmAUTitH_Si6eS-63" value="&lt;font style=&quot;font-size: 7px; color: rgb(214, 182, 86);&quot;&gt;tr[1]&lt;/font&gt;" style="text;html=1;align=center;verticalAlign=middle;whiteSpace=wrap;rounded=0;" vertex="1" parent="1">
          <mxGeometry x="94" y="531" width="20" height="19" as="geometry" />
        </mxCell>
        <mxCell id="1ED4RVVmAUTitH_Si6eS-64" value="&lt;font style=&quot;font-size: 10px;&quot; color=&quot;#d6b656&quot;&gt;①&lt;/font&gt;" style="text;html=1;align=center;verticalAlign=middle;whiteSpace=wrap;rounded=0;" vertex="1" parent="1">
          <mxGeometry x="175" y="607" width="20" height="20" as="geometry" />
        </mxCell>
        <mxCell id="1ED4RVVmAUTitH_Si6eS-65" value="&lt;font color=&quot;#d6b656&quot;&gt;&lt;span style=&quot;font-size: 10px;&quot;&gt;②&lt;/span&gt;&lt;/font&gt;" style="text;html=1;align=center;verticalAlign=middle;whiteSpace=wrap;rounded=0;" vertex="1" parent="1">
          <mxGeometry x="175" y="563" width="20" height="20" as="geometry" />
        </mxCell>
        <mxCell id="1ED4RVVmAUTitH_Si6eS-66" value="&lt;font style=&quot;font-size: 10px;&quot; color=&quot;#d6b656&quot;&gt;⓪&lt;/font&gt;" style="text;html=1;align=center;verticalAlign=middle;whiteSpace=wrap;rounded=0;" vertex="1" parent="1">
          <mxGeometry x="175" y="650" width="20" height="20" as="geometry" />
        </mxCell>
      </root>
    </mxGraphModel>
  </diagram>
</mxfile>
